<svg width="94" height="98" viewBox="0 0 94 98" fill="none" xmlns="http://www.w3.org/2000/svg">
<path d="M8.676 36V10.944H14.328V36H8.676ZM0.72 15.516V10.584H22.284V15.516H0.72ZM21.4557 36V18.504H26.9637V36H21.4557ZM26.9637 26.388L24.6597 24.588C25.1157 22.548 25.8837 20.964 26.9637 19.836C28.0437 18.708 29.5437 18.144 31.4637 18.144C32.3037 18.144 33.0357 18.276 33.6597 18.54C34.3077 18.78 34.8717 19.164 35.3517 19.692L32.0757 23.832C31.8357 23.568 31.5357 23.364 31.1757 23.22C30.8157 23.076 30.4077 23.004 29.9517 23.004C29.0397 23.004 28.3077 23.292 27.7557 23.868C27.2277 24.42 26.9637 25.26 26.9637 26.388ZM43.6348 36.36C42.0268 36.36 40.5868 35.964 39.3148 35.172C38.0668 34.38 37.0708 33.3 36.3268 31.932C35.6068 30.564 35.2468 29.004 35.2468 27.252C35.2468 25.5 35.6068 23.94 36.3268 22.572C37.0708 21.204 38.0668 20.124 39.3148 19.332C40.5868 18.54 42.0268 18.144 43.6348 18.144C44.8108 18.144 45.8668 18.372 46.8028 18.828C47.7628 19.284 48.5428 19.92 49.1428 20.736C49.7428 21.528 50.0788 22.44 50.1508 23.472V31.032C50.0788 32.064 49.7428 32.988 49.1428 33.804C48.5668 34.596 47.7988 35.22 46.8388 35.676C45.8788 36.132 44.8108 36.36 43.6348 36.36ZM44.7508 31.392C45.9268 31.392 46.8748 31.008 47.5948 30.24C48.3148 29.448 48.6748 28.452 48.6748 27.252C48.6748 26.436 48.5068 25.716 48.1708 25.092C47.8588 24.468 47.4028 23.988 46.8028 23.652C46.2268 23.292 45.5548 23.112 44.7868 23.112C44.0188 23.112 43.3348 23.292 42.7348 23.652C42.1588 23.988 41.6908 24.468 41.3308 25.092C40.9948 25.716 40.8268 26.436 40.8268 27.252C40.8268 28.044 40.9948 28.752 41.3308 29.376C41.6668 30 42.1348 30.492 42.7348 30.852C43.3348 31.212 44.0068 31.392 44.7508 31.392ZM48.4588 36V31.284L49.2868 27.036L48.4588 22.788V18.504H53.8588V36H48.4588ZM66.197 36.396C64.397 36.396 62.765 36 61.301 35.208C59.837 34.416 58.685 33.324 57.845 31.932C57.005 30.54 56.585 28.98 56.585 27.252C56.585 25.5 57.005 23.94 57.845 22.572C58.709 21.18 59.873 20.088 61.337 19.296C62.801 18.504 64.445 18.108 66.269 18.108C67.637 18.108 68.885 18.348 70.013 18.828C71.165 19.284 72.185 19.98 73.073 20.916L69.545 24.444C69.137 23.988 68.657 23.652 68.105 23.436C67.577 23.22 66.965 23.112 66.269 23.112C65.477 23.112 64.769 23.292 64.145 23.652C63.545 23.988 63.065 24.468 62.705 25.092C62.369 25.692 62.201 26.4 62.201 27.216C62.201 28.032 62.369 28.752 62.705 29.376C63.065 30 63.557 30.492 64.181 30.852C64.805 31.212 65.501 31.392 66.269 31.392C66.989 31.392 67.625 31.272 68.177 31.032C68.753 30.768 69.245 30.408 69.653 29.952L73.145 33.48C72.233 34.44 71.201 35.172 70.049 35.676C68.897 36.156 67.613 36.396 66.197 36.396ZM86.7923 36L80.6723 26.928L86.7563 18.504H92.9123L85.5683 27.972L85.7483 25.704L93.2723 36H86.7923ZM75.5963 36V9.864H81.1043V36H75.5963Z" fill="black"/>
<path d="M8.676 89V63.944H14.328V89H8.676ZM0.72 68.516V63.584H22.284V68.516H0.72ZM21.4557 89V71.504H26.9637V89H21.4557ZM26.9637 79.388L24.6597 77.588C25.1157 75.548 25.8837 73.964 26.9637 72.836C28.0437 71.708 29.5437 71.144 31.4637 71.144C32.3037 71.144 33.0357 71.276 33.6597 71.54C34.3077 71.78 34.8717 72.164 35.3517 72.692L32.0757 76.832C31.8357 76.568 31.5357 76.364 31.1757 76.22C30.8157 76.076 30.4077 76.004 29.9517 76.004C29.0397 76.004 28.3077 76.292 27.7557 76.868C27.2277 77.42 26.9637 78.26 26.9637 79.388ZM44.595 89.396C42.987 89.396 41.559 89.072 40.311 88.424C39.087 87.752 38.127 86.84 37.431 85.688C36.735 84.512 36.387 83.168 36.387 81.656V71.504H41.895V81.584C41.895 82.184 41.991 82.7 42.183 83.132C42.399 83.564 42.711 83.9 43.119 84.14C43.527 84.38 44.019 84.5 44.595 84.5C45.411 84.5 46.059 84.248 46.539 83.744C47.019 83.216 47.259 82.496 47.259 81.584V71.504H52.767V81.62C52.767 83.156 52.419 84.512 51.723 85.688C51.027 86.84 50.067 87.752 48.843 88.424C47.619 89.072 46.203 89.396 44.595 89.396ZM64.6853 89.396C62.8853 89.396 61.2533 89 59.7893 88.208C58.3253 87.416 57.1733 86.324 56.3333 84.932C55.4933 83.54 55.0733 81.98 55.0733 80.252C55.0733 78.5 55.4933 76.94 56.3333 75.572C57.1973 74.18 58.3613 73.088 59.8253 72.296C61.2893 71.504 62.9333 71.108 64.7573 71.108C66.1253 71.108 67.3733 71.348 68.5013 71.828C69.6533 72.284 70.6733 72.98 71.5613 73.916L68.0333 77.444C67.6253 76.988 67.1453 76.652 66.5933 76.436C66.0653 76.22 65.4533 76.112 64.7573 76.112C63.9653 76.112 63.2573 76.292 62.6333 76.652C62.0333 76.988 61.5533 77.468 61.1933 78.092C60.8573 78.692 60.6893 79.4 60.6893 80.216C60.6893 81.032 60.8573 81.752 61.1933 82.376C61.5533 83 62.0453 83.492 62.6693 83.852C63.2933 84.212 63.9893 84.392 64.7573 84.392C65.4773 84.392 66.1133 84.272 66.6653 84.032C67.2413 83.768 67.7333 83.408 68.1413 82.952L71.6333 86.48C70.7213 87.44 69.6893 88.172 68.5373 88.676C67.3853 89.156 66.1013 89.396 64.6853 89.396ZM85.2806 89L79.1606 79.928L85.2446 71.504H91.4006L84.0566 80.972L84.2366 78.704L91.7606 89H85.2806ZM74.0846 89V62.864H79.5926V89H74.0846Z" fill="black"/>
<path d="M38.676 63V37.944H44.328V63H38.676ZM30.72 42.516V37.584H52.284V42.516H30.72ZM66.4922 63V53.028C66.4922 52.116 66.2042 51.384 65.6282 50.832C65.0762 50.256 64.3682 49.968 63.5042 49.968C62.9042 49.968 62.3762 50.1 61.9202 50.364C61.4642 50.604 61.1042 50.964 60.8402 51.444C60.5762 51.9 60.4442 52.428 60.4442 53.028L58.3202 51.984C58.3202 50.616 58.6082 49.416 59.1842 48.384C59.7602 47.352 60.5642 46.56 61.5962 46.008C62.6282 45.432 63.8162 45.144 65.1602 45.144C66.5282 45.144 67.7282 45.432 68.7602 46.008C69.7922 46.56 70.5842 47.34 71.1362 48.348C71.7122 49.332 72.0002 50.484 72.0002 51.804V63H66.4922ZM54.9362 63V36.864H60.4442V63H54.9362ZM84.1777 63.396C82.2818 63.396 80.5898 63.012 79.1018 62.244C77.6378 61.452 76.4858 60.36 75.6458 58.968C74.8058 57.576 74.3858 56.004 74.3858 54.252C74.3858 52.5 74.7938 50.94 75.6098 49.572C76.4498 48.18 77.5778 47.088 78.9938 46.296C80.4098 45.504 82.0058 45.108 83.7818 45.108C85.5098 45.108 87.0338 45.48 88.3538 46.224C89.6738 46.968 90.7058 48 91.4498 49.32C92.2178 50.64 92.6017 52.152 92.6017 53.856C92.6017 54.168 92.5778 54.504 92.5298 54.864C92.5058 55.2 92.4458 55.596 92.3498 56.052L77.2658 56.088V52.308L90.0098 52.272L87.6338 53.856C87.6098 52.848 87.4538 52.02 87.1658 51.372C86.8778 50.7 86.4458 50.196 85.8698 49.86C85.3178 49.5 84.6338 49.32 83.8178 49.32C82.9538 49.32 82.1978 49.524 81.5498 49.932C80.9258 50.316 80.4338 50.868 80.0738 51.588C79.7378 52.308 79.5698 53.184 79.5698 54.216C79.5698 55.248 79.7498 56.136 80.1098 56.88C80.4938 57.6 81.0218 58.164 81.6938 58.572C82.3898 58.956 83.2058 59.148 84.1418 59.148C85.0058 59.148 85.7858 59.004 86.4818 58.716C87.1778 58.404 87.7898 57.948 88.3178 57.348L91.3418 60.372C90.4778 61.38 89.4338 62.136 88.2098 62.64C86.9858 63.144 85.6418 63.396 84.1777 63.396Z" fill="#FFCD29"/>
</svg>
